HIERARCHY
ROOT SpineBase
{
  OFFSET 0.000000 0.000000 0.000000
  CHANNELS 6 Xposition Yposition Zposition Zrotation Xrotation Yrotation
  JOINT SpineMid
  {
    OFFSET 0.000000 26.160628 0.000000
    CHANNELS 3 Zrotation Xrotation Yrotation
    JOINT SpineShoulder
    {
      OFFSET -0.294445 19.437892 -0.242231
      CHANNELS 3 Zrotation Xrotation Yrotation
      JOINT Neck
      {
        OFFSET -0.232281 6.460789 -0.250444
        CHANNELS 3 Zrotation Xrotation Yrotation
        JOINT Head
        {
          OFFSET 0.495229 8.970939 7.343719
          CHANNELS 3 Zrotation Xrotation Yrotation
          End Site
          {
            OFFSET 0 0 0
          }
        }
      }
      JOINT ShoulderLeft
      {
        OFFSET -4.219659 -5.826746 11.120090
        CHANNELS 3 Zrotation Xrotation Yrotation
        JOINT ElbowLeft
        {
          OFFSET -4.604715 -20.358947 -18.772766
          CHANNELS 3 Zrotation Xrotation Yrotation
          JOINT WristLeft
          {
            OFFSET 0.424811 -17.964645 9.113054
            CHANNELS 3 Zrotation Xrotation Yrotation
            JOINT HandLeft
            {
              OFFSET 0.197903 -7.362986 2.474390
              CHANNELS 3 Zrotation Xrotation Yrotation
              JOINT HandTipLeft
              {
                OFFSET 1.373192 -5.726763 1.090171
                CHANNELS 3 Zrotation Xrotation Yrotation
                End Site
                {
                  OFFSET 0 0 0
                }
              }
              JOINT ThumbLeft
              {
                OFFSET 2.847331 0.527667 -0.480544
                CHANNELS 3 Zrotation Xrotation Yrotation
                End Site
                {
                  OFFSET 0 0 0
                }
              }
            }
          }
        }
      }
      JOINT ShoulderRight
      {
        OFFSET 2.883974 -1.005618 -7.066098
        CHANNELS 3 Zrotation Xrotation Yrotation
        JOINT ElbowRight
        {
          OFFSET -9.745573 -20.564106 -3.119880
          CHANNELS 3 Zrotation Xrotation Yrotation
          JOINT WristRight
          {
            OFFSET -3.131604 -19.659898 3.698036
            CHANNELS 3 Zrotation Xrotation Yrotation
            JOINT HandRight
            {
              OFFSET 2.374679 -3.172686 3.187693
              CHANNELS 3 Zrotation Xrotation Yrotation
              JOINT HandTipRight
              {
                OFFSET -0.853027 -0.883289 3.165207
                CHANNELS 3 Zrotation Xrotation Yrotation
                End Site
                {
                  OFFSET 0 0 0
                }
              }
              JOINT ThumbRight
              {
                OFFSET 0.454810 0.819443 -0.967484
                CHANNELS 3 Zrotation Xrotation Yrotation
                End Site
                {
                  OFFSET 0 0 0
                }
              }
            }
          }
        }
      }
    }
  }
  JOINT HipLeft
  {
    OFFSET -3.167135 1.412756 -2.351556
    CHANNELS 3 Zrotation Xrotation Yrotation
    JOINT KneeLeft
    {
      OFFSET 24.413423 -35.016906 -2.396686
      CHANNELS 3 Zrotation Xrotation Yrotation
      JOINT AnkleLeft
      {
        OFFSET 6.113810 -31.320456 -4.148988
        CHANNELS 3 Zrotation Xrotation Yrotation
        JOINT FootLeft
        {
          OFFSET -5.109102 -4.455785 -6.620580
          CHANNELS 3 Zrotation Xrotation Yrotation
          End Site
          {
            OFFSET 0 0 0
          }
        }
      }
    }
  }
  JOINT HipRight
  {
    OFFSET 1.782464 0.765524 -3.086961
    CHANNELS 3 Zrotation Xrotation Yrotation
    JOINT KneeRight
    {
      OFFSET 8.454291 -33.219797 -10.201610
      CHANNELS 3 Zrotation Xrotation Yrotation
      JOINT AnkleRight
      {
        OFFSET 8.159578 -32.021725 -5.046188
        CHANNELS 3 Zrotation Xrotation Yrotation
        JOINT FootRight
        {
          OFFSET -1.458268 -6.613287 2.155964
          CHANNELS 3 Zrotation Xrotation Yrotation
          End Site
          {
            OFFSET 0 0 0
          }
        }
      }
    }
  }
}
MOTION
Frames: 9
Frame Time: 0.033333
81.926983 74.361509 290.540859 7.798682 9.112612 0.218111 1.208517 -0.457492 -0.464431 -1.122873 -1.320718 0.332123 -13.936809 -8.792021 3.043245 0.000000 0.000000 0.000000 -8.645180 -12.742272 0.654375 -35.785703 -32.586057 -26.573482 -18.882966 -9.426376 1.441458 -14.352400 -5.148654 -4.401808 0.000000 0.000000 0.000000 0.000000 0.000000 0.000000 -8.709787 -8.842345 -0.319692 -29.162628 -40.680266 -9.407306 -11.741018 23.737646 -42.326816 -10.246809 51.737930 42.199606 0.000000 0.000000 0.000000 0.000000 0.000000 0.000000 -13.674793 -14.576593 -6.437430 5.046186 6.110554 3.526756 -0.576508 -11.669244 16.541545 0.000000 0.000000 0.000000 -14.213379 -17.043280 -3.215358 6.814410 8.620027 -0.309093 -3.575033 0.447912 -0.943935 0.000000 0.000000 0.000000
81.971810 74.259656 290.515875 7.722661 9.203476 0.427892 0.474359 -0.652103 -0.732946 -1.791189 -1.429398 0.218598 -10.391460 -8.060272 1.831548 0.000000 0.000000 0.000000 -7.609651 -10.636588 0.771799 -35.602237 -33.035621 -27.368710 -19.788701 -6.726689 2.519203 -13.103065 -11.667110 -10.786729 0.000000 0.000000 0.000000 0.000000 0.000000 0.000000 -8.759656 -8.472369 -0.199886 -26.398012 -39.757856 -8.907655 -11.952269 18.394203 -45.167585 -14.934884 52.331851 47.385991 0.000000 0.000000 0.000000 0.000000 0.000000 0.000000 -13.473272 -14.758608 -6.731409 5.642720 6.136056 3.416090 -3.276255 -9.787042 16.692714 0.000000 0.000000 0.000000 -14.362844 -17.156829 -3.454109 6.984492 8.782164 -0.335506 -3.406120 0.358901 -0.905964 0.000000 0.000000 0.000000
82.036706 74.079808 290.482946 7.707021 9.268485 1.602850 0.215501 -0.682969 -1.932864 -1.360173 -1.107239 0.256339 -10.070243 -8.436246 1.415342 0.000000 0.000000 0.000000 -8.537047 -7.134172 0.479993 -31.490203 -34.096080 -25.914360 -22.876975 -11.503592 -0.902804 -11.099142 -7.742117 -7.518529 0.000000 0.000000 0.000000 0.000000 0.000000 0.000000 -7.983661 -9.766892 0.154252 -26.540677 -38.440864 -8.321426 -10.917617 10.950925 -48.833882 -23.024524 52.464769 51.331561 0.000000 0.000000 0.000000 0.000000 0.000000 0.000000 -13.745561 -14.657292 -8.008498 5.633188 6.222042 3.480080 -4.264940 -8.615367 16.336381 0.000000 0.000000 0.000000 -14.674856 -17.021015 -4.693036 6.877492 9.069174 -0.236363 -2.219856 -0.512926 -0.463243 0.000000 0.000000 0.000000
82.123600 73.835636 290.445922 7.646978 9.285039 3.276630 -0.103322 -0.779173 -3.627530 -1.303799 -1.062973 0.248860 -8.731089 -7.933563 0.735507 0.000000 0.000000 0.000000 -9.277983 -4.303928 0.788990 -27.468946 -35.225527 -24.655770 -29.765707 -13.061422 -3.166499 -9.415820 -5.764825 -5.573696 0.000000 0.000000 0.000000 0.000000 0.000000 0.000000 -5.962557 -10.212319 0.416913 -28.561994 -38.425978 -8.250074 -8.104248 1.649631 -52.557719 -37.030051 53.505823 58.591712 0.000000 0.000000 0.000000 0.000000 0.000000 0.000000 -14.235549 -14.376667 -9.790046 4.904014 6.481327 3.780897 -2.790926 -8.713716 15.156666 0.000000 0.000000 0.000000 -14.970744 -16.676522 -6.409019 6.345226 9.622621 0.070160 0.927045 -2.867489 0.724416 0.000000 0.000000 0.000000
82.201243 73.593831 290.440876 7.561896 9.227276 6.288350 -0.355545 -0.823259 -6.648096 -1.232146 -1.049436 0.245750 -7.547201 -7.392949 0.101824 0.000000 0.000000 0.000000 -9.905970 0.236370 0.692960 -24.417867 -37.613788 -23.896435 -29.248018 -14.620141 -4.708385 -12.073045 -6.814745 -6.156845 0.000000 0.000000 0.000000 0.000000 0.000000 0.000000 -4.604626 -10.400886 0.598350 -30.326003 -39.361383 -8.483793 -6.912021 2.941981 -51.841837 -34.987258 52.717393 56.067931 0.000000 0.000000 0.000000 0.000000 0.000000 0.000000 -15.003048 -13.575298 -12.802835 5.033412 6.511900 3.781640 -2.500640 -7.981593 13.726914 0.000000 0.000000 0.000000 -15.543507 -15.879367 -9.433131 5.979964 9.859433 0.252587 3.670708 -4.096022 1.847649 0.000000 0.000000 0.000000
82.284008 73.392807 290.449253 7.465759 9.118760 10.626654 -0.624589 -0.852549 -10.989890 -1.122558 -1.035728 0.246289 -6.421680 -6.422844 -0.538306 0.000000 0.000000 0.000000 -10.397253 3.535318 0.748942 -21.179784 -38.956265 -22.359852 -35.984052 -17.134478 -8.184199 -7.557045 -9.055548 -9.431755 0.000000 0.000000 0.000000 0.000000 0.000000 0.000000 -3.011348 -9.879049 0.459460 -31.695943 -40.465093 -8.356732 -9.019781 5.148500 -52.393094 -35.573228 53.251350 57.490497 0.000000 0.000000 0.000000 0.000000 0.000000 0.000000 -16.030523 -12.259629 -17.047934 5.232220 6.488745 3.738593 -3.175691 -7.024059 13.323591 0.000000 0.000000 0.000000 -16.370294 -14.653702 -13.745196 6.081717 9.578424 0.160175 2.284461 -2.408428 1.210570 0.000000 0.000000 0.000000
82.348264 73.232664 290.479092 7.377101 9.047678 16.321113 -0.860649 -0.778268 -16.688496 -0.998244 -0.987495 0.250675 -5.432972 -5.965762 -1.144525 0.000000 0.000000 0.000000 -11.598289 6.110486 1.438090 -16.395843 -39.842486 -20.130289 -55.561056 -15.745396 -13.546706 10.542916 -7.168262 -10.534934 0.000000 0.000000 0.000000 0.000000 0.000000 0.000000 -1.257073 -8.991231 0.029357 -32.808625 -42.808892 -8.061380 -13.870853 15.954677 -49.059656 -23.082470 52.579089 52.612827 0.000000 0.000000 0.000000 0.000000 0.000000 0.000000 -17.209523 -10.448404 -22.536874 5.462796 6.413856 3.658840 -2.978813 -7.010236 13.037445 0.000000 0.000000 0.000000 -17.389435 -13.007803 -19.359201 6.123047 9.246425 0.078342 1.306223 -1.271219 0.875912 0.000000 0.000000 0.000000
82.348651 73.154549 290.512178 7.243145 9.032543 22.598720 -0.990688 -0.700478 -22.959327 -0.865161 -0.947757 0.259113 -4.753446 -5.639152 -1.600902 0.000000 0.000000 0.000000 -11.259433 6.739725 1.097523 -13.977716 -39.918180 -17.703324 -71.431034 -9.884751 -14.101449 27.218304 -6.200247 -9.612902 0.000000 0.000000 0.000000 0.000000 0.000000 0.000000 0.478205 -7.620646 -0.727588 -33.574352 -45.535706 -7.570771 -19.267990 22.144570 -47.420155 -19.642259 53.855197 56.316655 0.000000 0.000000 0.000000 0.000000 0.000000 0.000000 -17.859562 -9.080693 -28.882706 4.294091 7.577391 4.291964 -1.556910 -8.616928 12.683576 0.000000 0.000000 0.000000 -18.306396 -11.188481 -25.498206 6.076862 8.961594 0.038553 0.649067 -0.990147 0.811334 0.000000 0.000000 0.000000
82.368861 73.197434 290.595782 7.241945 8.986871 28.302090 -1.071982 -0.571602 -28.662709 -0.726508 -0.913145 0.273428 -4.624816 -5.226639 -1.799709 0.000000 0.000000 0.000000 -9.602711 5.190710 -0.122258 -15.479845 -36.898234 -16.498469 -81.028954 -3.094420 -11.004052 37.079417 -6.504182 -5.505399 0.000000 0.000000 0.000000 0.000000 0.000000 0.000000 1.548473 -6.361208 -1.474684 -33.418731 -48.470097 -6.894993 -24.741965 32.546425 -40.213910 -10.013174 54.095177 50.698425 0.000000 0.000000 0.000000 0.000000 0.000000 0.000000 -19.034795 -6.048915 -33.640208 6.090626 5.940650 3.277739 -0.659823 -9.465759 13.299364 0.000000 0.000000 0.000000 -19.150707 -9.330100 -30.982110 6.106019 8.709105 -0.022940 0.136845 -0.414386 0.671837 0.000000 0.000000 0.000000
